<svg height='100px' width='100px'  fill="#FF0000" xmlns="http://www.w3.org/2000/svg" xmlns:xlink="http://www.w3.org/1999/xlink" version="1.1" x="0px" y="0px" viewBox="0 0 32 32" enable-background="new 0 0 32 32" xml:space="preserve"><g display="none"><path display="inline" d="M18,8c3.309,0,6,2.691,6,6c0,0.402-0.059,0.85-0.18,1.369l-0.855,3.663l3.602,1.08   C27.279,20.324,28,20.992,28,22c0,1.101-0.896,2-2,2H9.121l-0.676-0.076C5.912,23.639,4,21.524,4,19c0-2.7,2.203-4.934,4.91-4.985   l2.568-0.049l1.025-2.356C13.459,9.418,15.615,8,18,8 M18,4c-4.106,0-7.625,2.479-9.164,6.016C3.943,10.107,0,14.086,0,19   c0,4.627,3.508,8.395,8,8.898L10,28h16c3.314,0,6-2.688,6-6c0-2.713-1.812-4.981-4.285-5.721C27.887,15.543,28,14.787,28,14   C28,8.476,23.523,4,18,4L18,4z"></path></g><g display="none"><g display="inline"><path d="M27.993,12c0-6.628-5.373-12-12-12c-6.627,0-12,5.372-12,12c0,0.048,0.006,0.094,0.008,0.142    c-0.016,0.255-0.021,0.879,0.176,1.887c0.176,1.024,0.477,2.003,0.893,2.921c1.34,3.373,4.316,8.422,10.924,15.032V32    c0.004-0.003,0.006-0.006,0.01-0.009c0.002,0.003,0.004,0.006,0.008,0.009v-0.018c6.717-6.721,9.678-11.821,10.982-15.193    c0.352-0.805,0.613-1.654,0.781-2.539C28.092,12.771,27.993,12,27.993,12z M25.809,13.876c-0.139,0.734-0.357,1.444-0.682,2.19    c-1.057,2.732-3.498,7.147-9.127,13.061c-5.549-5.831-7.998-10.21-9.109-13.003c-0.348-0.768-0.598-1.586-0.752-2.48    c-0.164-0.841-0.148-1.298-0.143-1.381l0.006-0.102l-0.004-0.101L5.993,12c0-5.514,4.486-10,10-10c5.514,0,10,4.486,10,10    l0.004,0.129l0.008,0.081C26.004,12.216,26.045,12.773,25.809,13.876z"></path><path d="M16.01,6c-3.314,0-6,2.686-6,6c0,3.314,2.686,6,6,6c3.312,0,6-2.686,6-6C22.01,8.686,19.323,6,16.01,6z M16.01,16    c-2.205,0-4-1.794-4-4c0-2.206,1.795-4,4-4s4,1.794,4,4C20.01,14.206,18.215,16,16.01,16z"></path></g></g><g display="none"><path display="inline" fill-rule="evenodd" clip-rule="evenodd" d="M23,21c-1.656,0-3,1.344-3,3c0,1.656,1.344,3,3,3   c1.656,0,3-1.344,3-3C26,22.344,24.656,21,23,21z M9,21c-1.656,0-3,1.344-3,3c0,1.656,1.344,3,3,3c1.656,0,3-1.344,3-3   C12,22.344,10.656,21,9,21z M31,21h-1v-6c0,0-2-6-2-8s-2-2-2-2s-8,0-10,0s-2,2-2,2l-4,8c0,0-4,0-6,0s-2,2-2,2v2c0,0,0,0,0,2H1   c-0.551,0-1,0.449-1,1c0,0.553,0.449,1,1,1h3c0,0,0.041,0,0.102,0c0.463-2.283,2.48-4,4.898-4s4.436,1.717,4.898,4h4.203   c0.463-2.283,2.48-4,4.898-4s4.435,1.717,4.898,4H31c0.553,0,1-0.447,1-1C32,21.449,31.553,21,31,21z M19,19h-2   c-0.551,0-1-0.447-1-1c0-0.551,0.449-1,1-1h2c0.551,0,1,0.449,1,1C20,18.553,19.551,19,19,19z M22,15H12l4-8h6V15z M24,15V7h2l2,8   H24z"></path></g><g><path fill-rule="evenodd" clip-rule="evenodd" d="M28,8h-0.203C26.871,3.435,22.836,0,18,0c-5.137,0-9.32,3.887-9.887,8.873   C8.047,9.217,8,9.582,8,10c0,14-8,12-8,12s0,10,12,10c16,0,16-20,16-20l4-2L28,8z M20,10c-1.105,0-2-0.894-2-2s0.895-2,2-2   c1.105,0,2,0.894,2,2S21.105,10,20,10z"></path></g></svg>